<svg xmlns="http://www.w3.org/2000/svg" width="20" height="20" viewBox="0 0 24 24" fill="none">
    <path fill="#FFF"
        d="M20.447 20.452H16.89V14.835c0-1.345-.027-3.077-1.875-3.077-1.876 0-2.164 1.464-2.164 2.975v5.719H9.304V9h3.41v1.561h.05c.475-.902 1.636-1.853 3.366-1.853 3.599 0 4.264 2.369 4.264 5.453v6.291zM5.337 7.433a1.988 1.988 0 110-3.975 1.988 1.988 0 010 3.975zM6.991 20.452H3.682V9h3.309v11.452zM22.225 0H1.771C.792 0 0 .774 0 1.729v20.542C0 23.226.792 24 1.771 24h20.451C23.207 24 24 23.226 24 22.271V1.729C24 .774 23.207 0 22.225 0z" />
</svg>